<svg height="512pt" viewBox="0 -1 512 512" width="512pt" xmlns="http://www.w3.org/2000/svg"><path d="m62.53125 436.75v-76.148438h27.386719l1.632812-.855468c.414063-.214844 41.726563-21.566406 81.820313-21.566406h.015625c7.105469 0 13.820312.679687 19.957031 2.019531l3.203125-14.664063c-7.191406-1.566406-14.980469-2.363281-23.160156-2.363281-.007813 0-.011719 0-.015625 0-39.550782 0-78.492188 18.160156-87.09375 22.425781h-23.746094v-19.433594h-62.53125v15.007813h47.523438v115.054687h-47.523438v15.007813h62.53125v-19.476563h43.878906l58.640625 18.546876 4.527344-14.308594-60.851563-19.246094zm0 0"/><path d="m507.070312 367.925781c-10.398437-14.5625-27.300781-23.257812-45.214843-23.257812-9.238281 0-18.421875 2.347656-26.558594 6.785156l-83.566406 45.582031c-3.433594-13.683594-15.835938-23.847656-30.570313-23.847656h-68.007812c-4.011719-8.101562-12.371094-23.53125-20.578125-29.597656-5.976563-5.398438-12.828125-9.789063-20.375-13.054688l-5.960938 13.769532c6.152344 2.664062 11.714844 6.25 16.535157 10.660156l.363281.332031.40625.285156c5.171875 3.613281 13.675781 18.6875 18.058593 28.238281l2.007813 4.375h77.550781c9.101563 0 16.507813 7.402344 16.507813 16.507813 0 9.101563-7.40625 16.507813-16.507813 16.507813h-102.050781v15.007812h102.050781c13.972656 0 25.84375-9.144531 29.960938-21.757812l91.363281-49.832032c5.9375-3.238281 12.636719-4.953125 19.371094-4.953125 10.519531 0 20.5625 4.105469 28.039062 11.246094l-198.417969 123.632813-107.589843-34.03125-4.523438 14.308593 114.179688 36.117188 218.457031-136.121094zm0 0"/><path d="m440.9375 49.617188 11.84375-9.21875c-2.699219-3.46875-5.660156-6.8125-8.796875-9.9375-.683594-.679688-1.371094-1.347657-2.066406-2l-10.300781 10.910156c.597656.566406 1.191406 1.140625 1.777343 1.726562 2.691407 2.679688 5.226563 5.546875 7.542969 8.519532zm0 0"/><path d="m147.667969 195.984375 10.632812-10.589844 10.589844 10.632813-10.632813 10.589844zm0 0"/><path d="m459.730469 104.5c0 23.839844-9.265625 46.269531-26.089844 63.15625l-144.757813 145.320312-1.738281 1.746094-107.660156-108.074218-10.632813 10.589843 118.292969 118.753907 157.128907-157.742188c19.644531-19.722656 30.464843-45.914062 30.464843-73.75 0-17.707031-4.515625-35.210938-13.050781-50.617188l-13.128906 7.273438c7.308594 13.183594 11.171875 28.171875 11.171875 43.34375zm0 0"/><path d="m137.082031 185.339844 10.628907-10.589844-7.066407-7.09375c-16.820312-16.890625-26.085937-39.320312-26.085937-63.15625 0-23.972656 9.351562-46.488281 26.332031-63.40625 16.890625-16.820312 39.320313-26.085938 63.15625-26.085938 23.972656 0 46.492187 9.351563 63.40625 26.332032l10.847656 10.886718 8.84375 8.882813 19.691407-19.769531c16.914062-16.980469 39.429687-26.332032 63.402343-26.332032 18.203125 0 35.707031 5.417969 50.621094 15.671876l8.5-12.367188c-17.421875-11.980469-37.867187-18.3125-59.121094-18.3125-27.992187 0-54.285156 10.921875-74.035156 30.75l-9.058594 9.09375-9.058593-9.09375c-19.753907-19.828125-46.046876-30.75-74.039063-30.75-27.835937 0-54.027344 10.820312-73.746094 30.464844-19.828125 19.753906-30.75 46.046875-30.75 74.035156 0 27.835938 10.816407 54.027344 30.464844 73.75zm0 0"/><path d="m249.625 82.039062v40.019532h-40.019531v75.039062h40.019531v40.019532h75.039062v-40.019532h40.019532v-75.039062h-40.019532v-40.019532zm100.050781 55.027344v45.023438h-40.019531v40.019531h-45.023438v-40.019531h-40.019531v-45.023438h40.019531v-40.019531h45.023438v40.019531zm0 0"/><path d="m16.507812 386.691406h15.007813v15.007813h-15.007813zm0 0"/><path d="m16.507812 356.675781h15.007813v15.007813h-15.007813zm0 0"/><path d="m117.859375 380.75c4.429687-1.78125 9.011719-3.4375 13.617187-4.921875l-4.605468-14.285156c-4.941406 1.59375-9.859375 3.371093-14.617188 5.289062zm0 0"/><path d="m188.519531 354.554688c-12.8125-2.480469-28.707031-1.527344-46.648437 2.765624l3.492187 14.59375c15.792969-3.777343 29.652344-4.683593 40.304688-2.625zm0 0"/><path d="m444.722656 104.355469c-.039062-19.898438-7.824218-38.585938-21.921875-52.628907-5.960937-5.941406-12.785156-10.78125-20.28125-14.390624l-6.511719 13.523437c5.980469 2.875 11.433594 6.746094 16.203126 11.5 11.257812 11.214844 17.472656 26.136719 17.503906 42.023437zm0 0"/><path d="m370.238281 30.015625v15.007813c4.472657 0 8.925781.492187 13.230469 1.464843l3.308594-14.636719c-5.390625-1.21875-10.953125-1.835937-16.539063-1.835937zm0 0"/></svg>