<svg height="512pt" viewBox="0 0 512 512" width="512pt" xmlns="http://www.w3.org/2000/svg"><path d="m110.214844 436.851562v45.089844h45.089844v-45.089844zm30.058594 30.058594h-15.027344v-15.027344h15.027344zm0 0"/><path d="m401.785156 310.605469v-45.085938h45.085938v-85.167969h-45.085938v-45.085937h-85.167968v45.085937h-45.085938v85.167969h45.085938v45.085938zm-115.226562-60.117188v-55.105469h45.089844v-45.089843h55.105468v45.089843h45.089844v55.105469h-45.089844v45.089844h-55.105468v-45.089844zm0 0"/><path d="m250.488281 406.792969h-235.457031v-269.3125h-15.03125v336.945312c0 20.71875 16.855469 37.574219 37.574219 37.574219h36.640625v-15.03125h-36.640625c-12.429688 0-22.542969-10.109375-22.542969-22.542969v-52.601562h235.457031v52.601562c0 12.433594-10.113281 22.542969-22.542969 22.542969h-138.703124v15.03125h138.703124c20.71875 0 37.574219-16.855469 37.574219-37.574219v-83.160156h-15.03125zm0 0"/><path d="m15.03125 75.148438h235.457031v13.523437h15.03125v-51.097656c0-20.71875-16.855469-37.574219-37.574219-37.574219h-190.371093c-20.71875 0-37.574219 16.855469-37.574219 37.574219v84.878906h15.03125zm0-37.574219c0-12.433594 10.113281-22.542969 22.542969-22.542969h190.371093c12.429688 0 22.542969 10.109375 22.542969 22.542969v22.542969h-235.457031zm0 0"/><path d="m206.402344 222.933594c0 7.78125.59375 15.601562 1.757812 23.242187l14.859375-2.269531c-1.054687-6.890625-1.585937-13.949219-1.585937-20.972656 0-75.964844 61.800781-137.765625 137.769531-137.765625 29.3125 0 57.296875 9.082031 80.925781 26.261719l8.839844-12.15625c-26.214844-19.0625-57.253906-29.136719-89.765625-29.136719-84.253906 0-152.800781 68.546875-152.800781 152.796875zm0 0"/><path d="m461.304688 130.441406 11.136718-10.09375c-3.519531-3.882812-7.285156-7.632812-11.191406-11.140625l-10.042969 11.179688c3.527344 3.167969 6.921875 6.550781 10.097657 10.054687zm0 0"/><path d="m482.433594 132.578125-12.113282 8.894531c17.433594 23.742188 26.648438 51.910156 26.648438 81.460938 0 75.96875-61.800781 137.769531-137.765625 137.769531-18.21875 0-35.925781-3.503906-52.636719-10.417969l-2.28125-.945312-74.011718 18.34375 19.769531-60.617188-2.261719-3.105468c-9.980469-13.695313-17.261719-28.902344-21.636719-45.191407l-14.515625 3.902344c4.523438 16.832031 11.835938 32.617187 21.761719 46.980469l-25.808594 79.140625 95.554688-23.683594c17.855469 7.050781 36.707031 10.625 56.066406 10.625 84.253906 0 152.796875-68.546875 152.796875-152.800781 0-32.769532-10.222656-64.015625-29.566406-90.355469zm0 0"/><path d="m77.652344 30.058594h15.027344v15.03125h-15.027344zm0 0"/><path d="m107.710938 30.058594h50.097656v15.03125h-50.097656zm0 0"/><path d="m172.835938 30.058594h15.03125v15.03125h-15.03125zm0 0"/><path d="m89.675781 215.421875h15.027344v15.027344h-15.027344zm0 0"/><path d="m119.734375 215.421875h61.117187v15.027344h-61.117187zm0 0"/><path d="m139.773438 175.34375h41.078124v15.027344h-41.078124zm0 0"/><path d="m98.691406 255.5h82.160156v15.027344h-82.160156zm0 0"/><path d="m68.632812 255.5h15.03125v15.027344h-15.03125zm0 0"/><path d="m38.574219 255.5h15.03125v15.027344h-15.03125zm0 0"/></svg>