<svg height="512pt" viewBox="-48 0 512 512" width="512pt" xmlns="http://www.w3.org/2000/svg"><path d="m415.40625 407.894531c0-24.378906-10.285156-47.851562-28.214844-64.390625l-10.179687 11.039063c14.855469 13.703125 23.378906 33.152343 23.378906 53.351562v104.105469h15.015625zm0 0"/><path d="m0 462.703125h15.015625v49.296875h-15.015625zm0 0"/><path d="m313.304688 401.066406v-65.738281h14.515624c13.621094 0 26.898438 3.792969 38.386719 10.96875l7.953125-12.734375c-9.460937-5.910156-19.917968-9.914062-30.824218-11.867188v-163.039062h-15.015626v161.664062c-.167968 0-.335937-.007812-.5-.007812h-62.5625v-42.644531c18.390626-16.066407 30.03125-39.679688 30.03125-65.960938v-71.570312h-175.171874v71.570312c0 26.28125 11.636718 49.894531 30.03125 65.960938v42.644531h-62.5625c-.167969 0-.332032.003906-.5.007812v-68.230468h-15.015626v69.597656c-40.917968 7.347656-72.070312 43.207031-72.070312 86.207031v39.78125h15.015625v-39.78125c0-40.015625 32.554687-72.566406 72.570313-72.566406h15.515624v50.550781c-28.199218 3.695313-50.050781 27.859375-50.050781 57.050782v57.558593h33.535157v-15.015625h-18.519532v-42.539062c0-23.457032 19.082032-42.542969 42.542969-42.542969 23.457031 0 42.539063 19.085937 42.539063 42.542969v42.539062h-18.515626v15.015625h33.53125v-57.554687c0-29.191406-21.847656-53.359375-50.046874-57.050782v-50.554687h35.375l54.210937 86.734375 54.207031-86.734375h36.382813v65.738281c-19.890625 3.558594-35.035157 20.972656-35.035157 41.867188 0 23.457031 19.082032 42.539062 42.539063 42.539062 23.460937 0 42.542969-19.082031 42.542969-42.539062 0-20.894532-15.144532-38.308594-35.035156-41.867188zm-63.058594-75.398437-42.542969 68.066406-42.542969-68.066406v-37.425781c12.605469 7.035156 27.113282 11.050781 42.542969 11.050781s29.9375-4.015625 42.542969-11.050781zm-42.542969-41.390625c-40.015625 0-72.570313-32.554688-72.570313-72.570313v-56.554687h145.140626v56.554687c0 40.015625-32.554688 72.570313-72.570313 72.570313zm98.09375 186.183594c-15.175781 0-27.523437-12.351563-27.523437-27.527344 0-15.179688 12.347656-27.527344 27.523437-27.527344 15.179687 0 27.527344 12.347656 27.527344 27.527344 0 15.175781-12.347657 27.527344-27.527344 27.527344zm0 0"/><path d="m87.085938 159.046875c0-26.0625 8.074218-50.878906 23.023437-71.597656v37.671875h53.265625v-15.011719h-38.253906v-72.574219c0-12.417968 10.105468-22.519531 22.523437-22.519531h120.117188c12.417969 0 22.523437 10.101563 22.523437 22.519531v72.574219h-111.894531v15.011719h126.90625v-38.308594c12.265625 16.910156 20.050781 36.820312 22.3125 57.664062l14.925781-1.621093c-3.226562-29.734375-16.417968-57.800781-37.238281-79.386719v-25.933594c0-20.695312-16.835937-37.535156-37.535156-37.535156h-120.117188c-20.699219 0-37.535156 16.839844-37.535156 37.535156v26.476563c-24.554687 25.71875-38.039063 59.335937-38.039063 95.03125v78.03125h15.015626zm0 0"/><path d="m368.464844 395.324219c1.257812 4.054687 1.894531 8.285156 1.894531 12.570312h15.015625c0-5.792969-.863281-11.519531-2.566406-17.015625zm0 0"/><path d="m342.785156 352.316406-3.90625 14.496094c9.75 2.628906 18.289063 8.695312 24.042969 17.082031l12.378906-8.496093c-7.773437-11.328126-19.320312-19.527344-32.515625-23.082032zm0 0"/><path d="m298.292969 435.425781h15.011719v15.015625h-15.011719zm0 0"/><path d="m170.382812 232.113281-13.15625 7.234375c4.960938 9.027344 12.261719 16.582032 21.117188 21.851563l7.679688-12.902344c-6.558594-3.902344-11.964844-9.5-15.640626-16.183594zm0 0"/><path d="m200.195312 32.53125v22.523438h-22.523437v15.015624h22.523437v22.519532h15.015626v-22.519532h22.519531v-15.015624h-22.519531v-22.523438zm0 0"/></svg>